<?xml version="1.0" encoding="utf-8"?>
<!-- Generator: Adobe Illustrator 20.1.0, SVG Export Plug-In . SVG Version: 6.00 Build 0)  -->
<svg version="1.1" id="Layer_1" xmlns="http://www.w3.org/2000/svg" xmlns:xlink="http://www.w3.org/1999/xlink" x="0px" y="0px"
	 viewBox="0 0 240 240" style="enable-background:new 0 0 240 240;" xml:space="preserve">
<style type="text/css">
	.st0{clip-path:url(#SVGID_2_);fill:#171717;}
</style>
<g>
	<defs>
		<path id="SVGID_1_" d="M143.8,124.1l-2.7-2.7l2.8-2.8l0,0l-2.7,2.8L143.8,124.1l-2.7-2.7l-2.7,2.8l98.2,95.3
			c2.4,2.3,3.5,5.4,3.5,8.5c0,3.1-1.2,6.1-3.5,8.5c-2.4,2.4-5.5,3.5-8.6,3.5c-3.1,0-6.2-1.2-8.6-3.5l-100.9-97.8l-97.9,97.8
			c-2.4,2.1-5.4,3.5-8.6,3.5c-3.1,0-6.2-1.2-8.6-3.5C1.2,234.1,0,231.1,0,228c0-3.1,1.2-6.1,3.5-8.5l97.9-98.1L3.7,20.5
			c-2.4-2.3-3.5-5.4-3.5-8.5c0-3.1,1.2-6.1,3.5-8.5C6,1.2,9.1,0,12.2,0c3.1,0,6.2,1.2,8.6,3.5l97.7,100.8L219.3,3.5
			c2.4-2.4,5.4-3.5,8.6-3.5c3.1,0,6.2,1.2,8.6,3.5c2.4,2.4,3.5,5.4,3.5,8.5c0,3.1-1.2,6.1-3.5,8.5L135.5,121.4l2.8,2.8l2.7-2.8
			L143.8,124.1L143.8,124.1z"/>
	</defs>
	<use xlink:href="#SVGID_1_"  style="overflow:visible;fill-rule:evenodd;clip-rule:evenodd;fill:#555555;"/>
	<clipPath id="SVGID_2_">
		<use xlink:href="#SVGID_1_"  style="overflow:visible;"/>
	</clipPath>
	<rect x="-74.8" y="-75.9" class="st0" width="389.7" height="394.5"/>
</g>
</svg>
